<?xml version="1.0" encoding="UTF-8"?>
<svg xmlns="http://www.w3.org/2000/svg" width="900" height="900" viewBox="0 0 900 900">
  <rect width="900" height="900" fill="#f7f9fb"/>
  <text x="450" y="38" text-anchor="middle" font-family="sans-serif" font-size="15" font-weight="bold" fill="#334">Delaunay (Bowyer–Watson)  —  points.txt</text>
  <!-- triangulation faces -->
  <polygon points="627.27,450.00 272.73,450.00 450.00,804.55" fill="#ddeeff" stroke="none"/>
  <polygon points="627.27,450.00 450.00,95.45 272.73,450.00" fill="#ddeeff" stroke="none"/>
  <polygon points="272.73,450.00 95.45,95.45 95.45,804.55" fill="#ddeeff" stroke="none"/>
  <polygon points="450.00,804.55 272.73,450.00 95.45,804.55" fill="#ddeeff" stroke="none"/>
  <polygon points="450.00,95.45 95.45,95.45 272.73,450.00" fill="#ddeeff" stroke="none"/>
  <polygon points="804.55,804.55 627.27,450.00 450.00,804.55" fill="#ddeeff" stroke="none"/>
  <polygon points="804.55,95.45 450.00,95.45 627.27,450.00" fill="#ddeeff" stroke="none"/>
  <polygon points="804.55,95.45 627.27,450.00 804.55,804.55" fill="#ddeeff" stroke="none"/>
  <!-- triangulation edges -->
  <line x1="272.73" y1="450.00" x2="95.45" y2="95.45" stroke="#8899aa" stroke-width="0.7" opacity="0.7"/>
  <line x1="95.45" y1="95.45" x2="95.45" y2="804.55" stroke="#8899aa" stroke-width="0.7" opacity="0.7"/>
  <line x1="95.45" y1="804.55" x2="272.73" y2="450.00" stroke="#8899aa" stroke-width="0.7" opacity="0.7"/>
  <line x1="450.00" y1="804.55" x2="272.73" y2="450.00" stroke="#8899aa" stroke-width="0.7" opacity="0.7"/>
  <line x1="95.45" y1="804.55" x2="450.00" y2="804.55" stroke="#8899aa" stroke-width="0.7" opacity="0.7"/>
  <line x1="450.00" y1="95.45" x2="95.45" y2="95.45" stroke="#8899aa" stroke-width="0.7" opacity="0.7"/>
  <line x1="272.73" y1="450.00" x2="450.00" y2="95.45" stroke="#8899aa" stroke-width="0.7" opacity="0.7"/>
  <line x1="627.27" y1="450.00" x2="272.73" y2="450.00" stroke="#8899aa" stroke-width="0.7" opacity="0.7"/>
  <line x1="450.00" y1="804.55" x2="627.27" y2="450.00" stroke="#8899aa" stroke-width="0.7" opacity="0.7"/>
  <line x1="627.27" y1="450.00" x2="450.00" y2="95.45" stroke="#8899aa" stroke-width="0.7" opacity="0.7"/>
  <line x1="804.55" y1="804.55" x2="627.27" y2="450.00" stroke="#8899aa" stroke-width="0.7" opacity="0.7"/>
  <line x1="450.00" y1="804.55" x2="804.55" y2="804.55" stroke="#8899aa" stroke-width="0.7" opacity="0.7"/>
  <line x1="804.55" y1="95.45" x2="627.27" y2="450.00" stroke="#8899aa" stroke-width="0.7" opacity="0.7"/>
  <line x1="804.55" y1="804.55" x2="804.55" y2="95.45" stroke="#8899aa" stroke-width="0.7" opacity="0.7"/>
  <line x1="804.55" y1="95.45" x2="450.00" y2="95.45" stroke="#8899aa" stroke-width="0.7" opacity="0.7"/>
  <!-- A* corridor -->
  <polygon points="450.00,804.55 272.73,450.00 95.45,804.55" fill="#ffee55" stroke="none" opacity="0.35"/>
  <polygon points="627.27,450.00 272.73,450.00 450.00,804.55" fill="#ffee55" stroke="none" opacity="0.35"/>
  <polygon points="804.55,804.55 627.27,450.00 450.00,804.55" fill="#ffee55" stroke="none" opacity="0.35"/>
  <!-- input points -->
  <circle cx="95.45" cy="804.55" r="3.00" fill="#445566" stroke="none" opacity="0.8"/>
  <circle cx="95.45" cy="95.45" r="3.00" fill="#445566" stroke="none" opacity="0.8"/>
  <circle cx="272.73" cy="450.00" r="3.00" fill="#445566" stroke="none" opacity="0.8"/>
  <circle cx="450.00" cy="804.55" r="3.00" fill="#445566" stroke="none" opacity="0.8"/>
  <circle cx="450.00" cy="95.45" r="3.00" fill="#445566" stroke="none" opacity="0.8"/>
  <circle cx="627.27" cy="450.00" r="3.00" fill="#445566" stroke="none" opacity="0.8"/>
  <circle cx="804.55" cy="804.55" r="3.00" fill="#445566" stroke="none" opacity="0.8"/>
  <circle cx="804.55" cy="95.45" r="3.00" fill="#445566" stroke="none" opacity="0.8"/>
  <!-- smoothed path -->
  <polyline points="130.91,769.09 769.09,769.09 " fill="none" stroke="#1a6bbf" stroke-width="2.5" stroke-linejoin="round" stroke-linecap="round"/>
  <!-- start / goal markers -->
  <circle cx="130.91" cy="769.09" r="9" fill="#2aa832" stroke="white" stroke-width="2"/>
  <text x="130.91" y="773.59" text-anchor="middle" font-family="monospace" font-size="11" font-weight="bold" fill="white">S</text>
  <circle cx="769.09" cy="769.09" r="9" fill="#cc2222" stroke="white" stroke-width="2"/>
  <text x="769.09" y="773.59" text-anchor="middle" font-family="monospace" font-size="11" font-weight="bold" fill="white">G</text>
  <!-- legend box -->
  <rect x="60" y="720" width="280" height="110" fill="white" fill-opacity="0.88" stroke="#aabbcc" stroke-width="1" rx="6"/>
  <text x="70" y="740" font-family="monospace" font-size="12" font-weight="bold" fill="#222">Delaunay (Bowyer–Watson)</text>
  <text x="70" y="758" font-family="monospace" font-size="12" fill="#222">Triangles : 8</text>
  <text x="70" y="776" font-family="monospace" font-size="12" fill="#222">Weight    : 17.94</text>
  <text x="70" y="794" font-family="monospace" font-size="12" fill="#222">Build     : 0.4 ms</text>
  <text x="70" y="812" font-family="monospace" font-size="12" fill="#222">PathLen   : 1.80</text>
  <text x="70" y="830" font-family="monospace" font-size="12" fill="#222">Turns     : 0</text>
</svg>
